# xmcd
#
# Track frame offsets:
#	150
#	18168
#	33089
#	50841
#	72300
#	81942
#	98299
#	112092
#	139532
#	168311
#
# Disc length: 2437 seconds
#
# Revision: 1
# Processed by: cddbd v1.5.2PL0 Copyright (c) Steve Scherf et al.
# Submitted via: audiograbber 1.83.01
#
DISCID=7809830a
DTITLE=Surfer Blood - Astro Coast
DYEAR=2010
DGENRE=Rock
TTITLE0=Floating Vibes
TTITLE1=Swim
TTITLE2=Take It Easy
TTITLE3=Harmonix
TTITLE4=Neighbour Riffs
TTITLE5=Twin Peaks
TTITLE6=Fast Jabroni
TTITLE7=Slow Jabroni
TTITLE8=Anchorage
TTITLE9=Catholic Pagans
EXTD=
EXTT0=
EXTT1=
EXTT2=
EXTT3=
EXTT4=
EXTT5=
EXTT6=
EXTT7=
EXTT8=
EXTT9=
PLAYORDER=
